<mxfile host="65bd71144e" modified="2021-01-28T15:57:09.992Z" agent="5.0 (Windows NT 10.0; Win64; x64) AppleWebKit/537.36 (KHTML, like Gecko) Code/1.52.1 Chrome/83.0.4103.122 Electron/9.3.5 Safari/537.36" etag="Eo2qRbnaje2-U19KQ7Od" version="13.10.0" type="embed" pages="3">
    <diagram id="EKu-L2uYIcwPSTa6r3Rf" name="Network Scan">
        <mxGraphModel dx="1374" dy="790" grid="1" gridSize="10" guides="1" tooltips="1" connect="1" arrows="1" fold="1" page="1" pageScale="1" pageWidth="850" pageHeight="1100" math="0" shadow="0">
            <root>
                <mxCell id="0"/>
                <mxCell id="1" parent="0"/>
                <mxCell id="27" value="Loop" style="html=1;align=left;verticalAlign=top;rounded=1;absoluteArcSize=1;arcSize=10;dashed=1;" vertex="1" parent="1">
                    <mxGeometry x="290" y="365" width="280" height="250" as="geometry"/>
                </mxCell>
                <mxCell id="3" style="edgeStyle=orthogonalEdgeStyle;rounded=0;orthogonalLoop=1;jettySize=auto;html=1;entryX=0.5;entryY=0;entryDx=0;entryDy=0;" parent="1" source="2" target="8" edge="1">
                    <mxGeometry relative="1" as="geometry">
                        <mxPoint x="425" y="120" as="targetPoint"/>
                    </mxGeometry>
                </mxCell>
                <mxCell id="2" value="" style="ellipse;fillColor=#000000;strokeColor=none;" parent="1" vertex="1">
                    <mxGeometry x="410" y="50" width="30" height="30" as="geometry"/>
                </mxCell>
                <mxCell id="9" style="edgeStyle=orthogonalEdgeStyle;rounded=0;orthogonalLoop=1;jettySize=auto;html=1;" parent="1" source="8" edge="1">
                    <mxGeometry relative="1" as="geometry">
                        <mxPoint x="425" y="230" as="targetPoint"/>
                    </mxGeometry>
                </mxCell>
                <mxCell id="8" value="Retrieve user IP" style="html=1;align=center;verticalAlign=top;rounded=1;absoluteArcSize=1;arcSize=10;dashed=0;" parent="1" vertex="1">
                    <mxGeometry x="355" y="140" width="140" height="40" as="geometry"/>
                </mxCell>
                <mxCell id="16" style="edgeStyle=orthogonalEdgeStyle;rounded=0;orthogonalLoop=1;jettySize=auto;html=1;" parent="1" source="10" target="11" edge="1">
                    <mxGeometry relative="1" as="geometry"/>
                </mxCell>
                <mxCell id="10" value="Calculate Subnet Mask" style="html=1;align=center;verticalAlign=top;rounded=1;absoluteArcSize=1;arcSize=10;dashed=0;" parent="1" vertex="1">
                    <mxGeometry x="355" y="230" width="140" height="40" as="geometry"/>
                </mxCell>
                <mxCell id="18" style="edgeStyle=orthogonalEdgeStyle;rounded=0;orthogonalLoop=1;jettySize=auto;html=1;entryX=0.5;entryY=0;entryDx=0;entryDy=0;" parent="1" source="11" target="12" edge="1">
                    <mxGeometry relative="1" as="geometry"/>
                </mxCell>
                <mxCell id="11" value="Convert Subnet Mask&lt;br&gt;to IP Range" style="html=1;align=center;verticalAlign=top;rounded=1;absoluteArcSize=1;arcSize=10;dashed=0;" parent="1" vertex="1">
                    <mxGeometry x="355" y="310" width="140" height="40" as="geometry"/>
                </mxCell>
                <mxCell id="22" style="edgeStyle=orthogonalEdgeStyle;rounded=0;orthogonalLoop=1;jettySize=auto;html=1;" parent="1" source="12" target="19" edge="1">
                    <mxGeometry relative="1" as="geometry"/>
                </mxCell>
                <mxCell id="12" value="Check for Open &lt;br&gt;Connections&lt;br&gt;" style="html=1;align=center;verticalAlign=top;rounded=1;absoluteArcSize=1;arcSize=10;dashed=0;" parent="1" vertex="1">
                    <mxGeometry x="355" y="390" width="140" height="40" as="geometry"/>
                </mxCell>
                <mxCell id="24" style="edgeStyle=orthogonalEdgeStyle;rounded=0;orthogonalLoop=1;jettySize=auto;html=1;entryX=0.5;entryY=0;entryDx=0;entryDy=0;" parent="1" source="19" target="23" edge="1">
                    <mxGeometry relative="1" as="geometry"/>
                </mxCell>
                <mxCell id="19" value="Retrieve Banner &lt;br&gt;Response" style="html=1;align=center;verticalAlign=top;rounded=1;absoluteArcSize=1;arcSize=10;dashed=0;" parent="1" vertex="1">
                    <mxGeometry x="355" y="470" width="140" height="40" as="geometry"/>
                </mxCell>
                <mxCell id="26" style="edgeStyle=orthogonalEdgeStyle;rounded=0;orthogonalLoop=1;jettySize=auto;html=1;entryX=0.5;entryY=0;entryDx=0;entryDy=0;" edge="1" parent="1" source="23" target="25">
                    <mxGeometry relative="1" as="geometry"/>
                </mxCell>
                <mxCell id="23" value="Store Information" style="html=1;align=center;verticalAlign=top;rounded=1;absoluteArcSize=1;arcSize=10;dashed=0;" parent="1" vertex="1">
                    <mxGeometry x="355" y="550" width="140" height="40" as="geometry"/>
                </mxCell>
                <mxCell id="25" value="" style="ellipse;html=1;shape=endState;fillColor=#000000;strokeColor=#000000;" vertex="1" parent="1">
                    <mxGeometry x="410" y="640" width="30" height="30" as="geometry"/>
                </mxCell>
            </root>
        </mxGraphModel>
    </diagram>
    <diagram id="2OVP18D5io6kCzbpEOW8" name="Vulnerability Check">
        <mxGraphModel dx="1374" dy="790" grid="1" gridSize="10" guides="1" tooltips="1" connect="1" arrows="1" fold="1" page="1" pageScale="1" pageWidth="850" pageHeight="1100" math="0" shadow="0">
            <root>
                <mxCell id="v1OaToC1gLnN5O0LQfW9-0"/>
                <mxCell id="v1OaToC1gLnN5O0LQfW9-1" parent="v1OaToC1gLnN5O0LQfW9-0"/>
                <mxCell id="BtSg16X0ovq7UdsMO2ph-0" value="Loop&lt;br&gt;" style="html=1;align=left;verticalAlign=top;rounded=1;absoluteArcSize=1;arcSize=10;dashed=1;" vertex="1" parent="v1OaToC1gLnN5O0LQfW9-1">
                    <mxGeometry x="143" y="190" width="565" height="210" as="geometry"/>
                </mxCell>
                <mxCell id="fgz5ImdKAYkiEZxNjzyw-0" style="edgeStyle=orthogonalEdgeStyle;rounded=0;orthogonalLoop=1;jettySize=auto;html=1;entryX=0.5;entryY=0;entryDx=0;entryDy=0;" parent="v1OaToC1gLnN5O0LQfW9-1" source="fgz5ImdKAYkiEZxNjzyw-1" target="fgz5ImdKAYkiEZxNjzyw-3" edge="1">
                    <mxGeometry relative="1" as="geometry">
                        <mxPoint x="425" y="120" as="targetPoint"/>
                    </mxGeometry>
                </mxCell>
                <mxCell id="fgz5ImdKAYkiEZxNjzyw-1" value="" style="ellipse;fillColor=#000000;strokeColor=none;" parent="v1OaToC1gLnN5O0LQfW9-1" vertex="1">
                    <mxGeometry x="410" y="50" width="30" height="30" as="geometry"/>
                </mxCell>
                <mxCell id="EdwKhC-RFLMRNV13bGZn-1" style="edgeStyle=orthogonalEdgeStyle;rounded=0;orthogonalLoop=1;jettySize=auto;html=1;entryX=0.5;entryY=0;entryDx=0;entryDy=0;" edge="1" parent="v1OaToC1gLnN5O0LQfW9-1" source="fgz5ImdKAYkiEZxNjzyw-3" target="fgz5ImdKAYkiEZxNjzyw-5">
                    <mxGeometry relative="1" as="geometry"/>
                </mxCell>
                <mxCell id="EdwKhC-RFLMRNV13bGZn-2" style="edgeStyle=orthogonalEdgeStyle;rounded=0;orthogonalLoop=1;jettySize=auto;html=1;" edge="1" parent="v1OaToC1gLnN5O0LQfW9-1" source="fgz5ImdKAYkiEZxNjzyw-3" target="fgz5ImdKAYkiEZxNjzyw-12">
                    <mxGeometry relative="1" as="geometry"/>
                </mxCell>
                <mxCell id="fgz5ImdKAYkiEZxNjzyw-3" value="Recieve Device List&amp;nbsp;" style="html=1;align=center;verticalAlign=top;rounded=1;absoluteArcSize=1;arcSize=10;dashed=0;" parent="v1OaToC1gLnN5O0LQfW9-1" vertex="1">
                    <mxGeometry x="355" y="140" width="140" height="40" as="geometry"/>
                </mxCell>
                <mxCell id="fgz5ImdKAYkiEZxNjzyw-4" style="edgeStyle=orthogonalEdgeStyle;rounded=0;orthogonalLoop=1;jettySize=auto;html=1;" parent="v1OaToC1gLnN5O0LQfW9-1" source="fgz5ImdKAYkiEZxNjzyw-5" target="fgz5ImdKAYkiEZxNjzyw-7" edge="1">
                    <mxGeometry relative="1" as="geometry"/>
                </mxCell>
                <mxCell id="fgz5ImdKAYkiEZxNjzyw-5" value="Search NVD" style="html=1;align=center;verticalAlign=top;rounded=1;absoluteArcSize=1;arcSize=10;dashed=0;" parent="v1OaToC1gLnN5O0LQfW9-1" vertex="1">
                    <mxGeometry x="215" y="230" width="140" height="40" as="geometry"/>
                </mxCell>
                <mxCell id="EdwKhC-RFLMRNV13bGZn-8" style="edgeStyle=orthogonalEdgeStyle;rounded=0;orthogonalLoop=1;jettySize=auto;html=1;entryX=0.5;entryY=0;entryDx=0;entryDy=0;" edge="1" parent="v1OaToC1gLnN5O0LQfW9-1" source="fgz5ImdKAYkiEZxNjzyw-7" target="EdwKhC-RFLMRNV13bGZn-6">
                    <mxGeometry relative="1" as="geometry"/>
                </mxCell>
                <mxCell id="fgz5ImdKAYkiEZxNjzyw-7" value="Identify Applicable &lt;br&gt;Vulnerabilites" style="html=1;align=center;verticalAlign=top;rounded=1;absoluteArcSize=1;arcSize=10;dashed=0;" parent="v1OaToC1gLnN5O0LQfW9-1" vertex="1">
                    <mxGeometry x="215" y="310" width="140" height="40" as="geometry"/>
                </mxCell>
                <mxCell id="EdwKhC-RFLMRNV13bGZn-5" style="edgeStyle=orthogonalEdgeStyle;rounded=0;orthogonalLoop=1;jettySize=auto;html=1;entryX=0.5;entryY=0;entryDx=0;entryDy=0;" edge="1" parent="v1OaToC1gLnN5O0LQfW9-1" source="fgz5ImdKAYkiEZxNjzyw-12" target="EdwKhC-RFLMRNV13bGZn-4">
                    <mxGeometry relative="1" as="geometry"/>
                </mxCell>
                <mxCell id="fgz5ImdKAYkiEZxNjzyw-12" value="Identify device CVE" style="html=1;align=center;verticalAlign=top;rounded=1;absoluteArcSize=1;arcSize=10;dashed=0;" parent="v1OaToC1gLnN5O0LQfW9-1" vertex="1">
                    <mxGeometry x="495" y="230" width="140" height="40" as="geometry"/>
                </mxCell>
                <mxCell id="EdwKhC-RFLMRNV13bGZn-7" style="edgeStyle=orthogonalEdgeStyle;rounded=0;orthogonalLoop=1;jettySize=auto;html=1;entryX=0.5;entryY=0;entryDx=0;entryDy=0;" edge="1" parent="v1OaToC1gLnN5O0LQfW9-1" source="EdwKhC-RFLMRNV13bGZn-4" target="EdwKhC-RFLMRNV13bGZn-6">
                    <mxGeometry relative="1" as="geometry"/>
                </mxCell>
                <mxCell id="EdwKhC-RFLMRNV13bGZn-4" value="Search Bot Vulnerability&lt;br&gt;Database" style="html=1;align=center;verticalAlign=top;rounded=1;absoluteArcSize=1;arcSize=10;dashed=0;" vertex="1" parent="v1OaToC1gLnN5O0LQfW9-1">
                    <mxGeometry x="495" y="310" width="140" height="40" as="geometry"/>
                </mxCell>
                <mxCell id="EdwKhC-RFLMRNV13bGZn-9" style="edgeStyle=orthogonalEdgeStyle;rounded=0;orthogonalLoop=1;jettySize=auto;html=1;" edge="1" parent="v1OaToC1gLnN5O0LQfW9-1" source="EdwKhC-RFLMRNV13bGZn-6">
                    <mxGeometry relative="1" as="geometry">
                        <mxPoint x="425" y="500" as="targetPoint"/>
                    </mxGeometry>
                </mxCell>
                <mxCell id="EdwKhC-RFLMRNV13bGZn-6" value="Display to User" style="html=1;align=center;verticalAlign=top;rounded=1;absoluteArcSize=1;arcSize=10;dashed=0;" vertex="1" parent="v1OaToC1gLnN5O0LQfW9-1">
                    <mxGeometry x="355" y="410" width="140" height="40" as="geometry"/>
                </mxCell>
                <mxCell id="EdwKhC-RFLMRNV13bGZn-10" value="" style="ellipse;html=1;shape=endState;fillColor=#000000;strokeColor=#000000;" vertex="1" parent="v1OaToC1gLnN5O0LQfW9-1">
                    <mxGeometry x="410" y="500" width="30" height="30" as="geometry"/>
                </mxCell>
            </root>
        </mxGraphModel>
    </diagram>
    <diagram id="E1LTeP1uHjcBJi3NflUi" name="Twitter Bot">
        <mxGraphModel dx="1374" dy="790" grid="1" gridSize="10" guides="1" tooltips="1" connect="1" arrows="1" fold="1" page="1" pageScale="1" pageWidth="850" pageHeight="1100" math="0" shadow="0">
            <root>
                <mxCell id="52Ogbd4grmX5IhHfRulH-0"/>
                <mxCell id="52Ogbd4grmX5IhHfRulH-1" parent="52Ogbd4grmX5IhHfRulH-0"/>
                <mxCell id="z33nyiTin_kcptZ_2FQ3-1" style="edgeStyle=orthogonalEdgeStyle;rounded=0;orthogonalLoop=1;jettySize=auto;html=1;entryX=0.5;entryY=0;entryDx=0;entryDy=0;" edge="1" parent="52Ogbd4grmX5IhHfRulH-1" source="z33nyiTin_kcptZ_2FQ3-2" target="z33nyiTin_kcptZ_2FQ3-5">
                    <mxGeometry relative="1" as="geometry">
                        <mxPoint x="425" y="120" as="targetPoint"/>
                        <Array as="points">
                            <mxPoint x="425" y="130"/>
                            <mxPoint x="300" y="130"/>
                        </Array>
                    </mxGeometry>
                </mxCell>
                <mxCell id="QsngFOW0H9rikoXC763O-5" style="edgeStyle=orthogonalEdgeStyle;rounded=0;orthogonalLoop=1;jettySize=auto;html=1;" edge="1" parent="52Ogbd4grmX5IhHfRulH-1" target="QsngFOW0H9rikoXC763O-4">
                    <mxGeometry relative="1" as="geometry">
                        <mxPoint x="425" y="80" as="sourcePoint"/>
                        <Array as="points">
                            <mxPoint x="425" y="130"/>
                            <mxPoint x="550" y="130"/>
                        </Array>
                    </mxGeometry>
                </mxCell>
                <mxCell id="z33nyiTin_kcptZ_2FQ3-2" value="" style="ellipse;fillColor=#000000;strokeColor=none;" vertex="1" parent="52Ogbd4grmX5IhHfRulH-1">
                    <mxGeometry x="410" y="50" width="30" height="30" as="geometry"/>
                </mxCell>
                <mxCell id="QsngFOW0H9rikoXC763O-2" style="edgeStyle=orthogonalEdgeStyle;rounded=0;orthogonalLoop=1;jettySize=auto;html=1;entryX=0.5;entryY=0;entryDx=0;entryDy=0;" edge="1" parent="52Ogbd4grmX5IhHfRulH-1" source="z33nyiTin_kcptZ_2FQ3-5" target="qwqd1W3SGIhfL5Km9Tk8-1">
                    <mxGeometry relative="1" as="geometry"/>
                </mxCell>
                <mxCell id="z33nyiTin_kcptZ_2FQ3-5" value="Sort Latest Tweet&lt;br&gt;Data" style="html=1;align=center;verticalAlign=top;rounded=1;absoluteArcSize=1;arcSize=10;dashed=0;" vertex="1" parent="52Ogbd4grmX5IhHfRulH-1">
                    <mxGeometry x="230" y="170" width="140" height="40" as="geometry"/>
                </mxCell>
                <mxCell id="z33nyiTin_kcptZ_2FQ3-14" style="edgeStyle=orthogonalEdgeStyle;rounded=0;orthogonalLoop=1;jettySize=auto;html=1;" edge="1" parent="52Ogbd4grmX5IhHfRulH-1">
                    <mxGeometry relative="1" as="geometry">
                        <mxPoint x="425" y="590" as="targetPoint"/>
                        <mxPoint x="425" y="540" as="sourcePoint"/>
                    </mxGeometry>
                </mxCell>
                <mxCell id="z33nyiTin_kcptZ_2FQ3-16" value="" style="ellipse;html=1;shape=endState;fillColor=#000000;strokeColor=#000000;" vertex="1" parent="52Ogbd4grmX5IhHfRulH-1">
                    <mxGeometry x="410" y="590" width="30" height="30" as="geometry"/>
                </mxCell>
                <mxCell id="QsngFOW0H9rikoXC763O-3" style="edgeStyle=orthogonalEdgeStyle;rounded=0;orthogonalLoop=1;jettySize=auto;html=1;entryX=0.5;entryY=0;entryDx=0;entryDy=0;" edge="1" parent="52Ogbd4grmX5IhHfRulH-1" source="qwqd1W3SGIhfL5Km9Tk8-1" target="QsngFOW0H9rikoXC763O-1">
                    <mxGeometry relative="1" as="geometry"/>
                </mxCell>
                <mxCell id="qwqd1W3SGIhfL5Km9Tk8-1" value="Identify CVE" style="html=1;align=center;verticalAlign=top;rounded=1;absoluteArcSize=1;arcSize=10;dashed=0;" vertex="1" parent="52Ogbd4grmX5IhHfRulH-1">
                    <mxGeometry x="230" y="260" width="140" height="40" as="geometry"/>
                </mxCell>
                <mxCell id="QsngFOW0H9rikoXC763O-13" style="edgeStyle=orthogonalEdgeStyle;rounded=0;orthogonalLoop=1;jettySize=auto;html=1;exitX=0.5;exitY=1;exitDx=0;exitDy=0;" edge="1" parent="52Ogbd4grmX5IhHfRulH-1" source="QsngFOW0H9rikoXC763O-1" target="z33nyiTin_kcptZ_2FQ3-16">
                    <mxGeometry relative="1" as="geometry">
                        <Array as="points">
                            <mxPoint x="300" y="530"/>
                            <mxPoint x="425" y="530"/>
                        </Array>
                    </mxGeometry>
                </mxCell>
                <mxCell id="QsngFOW0H9rikoXC763O-1" value="Store Tweet Information" style="html=1;align=center;verticalAlign=top;rounded=1;absoluteArcSize=1;arcSize=10;dashed=0;" vertex="1" parent="52Ogbd4grmX5IhHfRulH-1">
                    <mxGeometry x="230" y="350" width="140" height="40" as="geometry"/>
                </mxCell>
                <mxCell id="QsngFOW0H9rikoXC763O-7" style="edgeStyle=orthogonalEdgeStyle;rounded=0;orthogonalLoop=1;jettySize=auto;html=1;" edge="1" parent="52Ogbd4grmX5IhHfRulH-1" source="QsngFOW0H9rikoXC763O-4" target="QsngFOW0H9rikoXC763O-6">
                    <mxGeometry relative="1" as="geometry"/>
                </mxCell>
                <mxCell id="QsngFOW0H9rikoXC763O-4" value="Retrieve Preveious &lt;br&gt;Tweet Data" style="html=1;align=center;verticalAlign=top;rounded=1;absoluteArcSize=1;arcSize=10;dashed=0;" vertex="1" parent="52Ogbd4grmX5IhHfRulH-1">
                    <mxGeometry x="480" y="170" width="140" height="40" as="geometry"/>
                </mxCell>
                <mxCell id="QsngFOW0H9rikoXC763O-9" style="edgeStyle=orthogonalEdgeStyle;rounded=0;orthogonalLoop=1;jettySize=auto;html=1;entryX=0.5;entryY=0;entryDx=0;entryDy=0;" edge="1" parent="52Ogbd4grmX5IhHfRulH-1" source="QsngFOW0H9rikoXC763O-6" target="QsngFOW0H9rikoXC763O-8">
                    <mxGeometry relative="1" as="geometry"/>
                </mxCell>
                <mxCell id="QsngFOW0H9rikoXC763O-6" value="Measure Tweet Activity" style="html=1;align=center;verticalAlign=top;rounded=1;absoluteArcSize=1;arcSize=10;dashed=0;" vertex="1" parent="52Ogbd4grmX5IhHfRulH-1">
                    <mxGeometry x="480" y="260" width="140" height="40" as="geometry"/>
                </mxCell>
                <mxCell id="QsngFOW0H9rikoXC763O-10" style="edgeStyle=orthogonalEdgeStyle;rounded=0;orthogonalLoop=1;jettySize=auto;html=1;" edge="1" parent="52Ogbd4grmX5IhHfRulH-1" source="QsngFOW0H9rikoXC763O-8">
                    <mxGeometry relative="1" as="geometry">
                        <mxPoint x="550" y="440" as="targetPoint"/>
                    </mxGeometry>
                </mxCell>
                <mxCell id="QsngFOW0H9rikoXC763O-8" value="Determine CVE Validity" style="html=1;align=center;verticalAlign=top;rounded=1;absoluteArcSize=1;arcSize=10;dashed=0;" vertex="1" parent="52Ogbd4grmX5IhHfRulH-1">
                    <mxGeometry x="480" y="350" width="140" height="40" as="geometry"/>
                </mxCell>
                <mxCell id="QsngFOW0H9rikoXC763O-14" style="edgeStyle=orthogonalEdgeStyle;rounded=0;orthogonalLoop=1;jettySize=auto;html=1;entryX=0.5;entryY=0;entryDx=0;entryDy=0;exitX=0.5;exitY=1;exitDx=0;exitDy=0;" edge="1" parent="52Ogbd4grmX5IhHfRulH-1" source="QsngFOW0H9rikoXC763O-11" target="z33nyiTin_kcptZ_2FQ3-16">
                    <mxGeometry relative="1" as="geometry">
                        <mxPoint x="560" y="490" as="sourcePoint"/>
                        <Array as="points">
                            <mxPoint x="550" y="530"/>
                            <mxPoint x="425" y="530"/>
                        </Array>
                    </mxGeometry>
                </mxCell>
                <mxCell id="QsngFOW0H9rikoXC763O-11" value="Update Database" style="html=1;align=center;verticalAlign=top;rounded=1;absoluteArcSize=1;arcSize=10;dashed=0;" vertex="1" parent="52Ogbd4grmX5IhHfRulH-1">
                    <mxGeometry x="480" y="440" width="140" height="40" as="geometry"/>
                </mxCell>
            </root>
        </mxGraphModel>
    </diagram>
</mxfile>